HIERARCHY
ROOT root
{
	OFFSET	0	13.1	24.9
	CHANNELS 6  Xposition Yposition Zposition Xrotation Yrotation Zrotation
	JOINT spine_1
	{
		OFFSET	0	9.99999	0
		CHANNELS 3  Xrotation Yrotation Zrotation
		JOINT spine_2
		{
			OFFSET	0	112	-10
			CHANNELS 3  Xrotation Yrotation Zrotation
			JOINT spine_3
			{
				OFFSET	0	206.5	19.3
				CHANNELS 3  Xrotation Yrotation Zrotation
				JOINT spine_4
				{
					OFFSET	0	110.4	14.6
					CHANNELS 3  Xrotation Yrotation Zrotation
					JOINT neck_1
					{
						OFFSET	0	71.8	-50.3
						CHANNELS 3  Xrotation Yrotation Zrotation
						JOINT neck_2
						{
							OFFSET	0	86.2	-25.8
							CHANNELS 3  Xrotation Yrotation Zrotation
							JOINT head_ee
							{
								OFFSET	0	179.8	-8.7
								CHANNELS 3  Xrotation Yrotation Zrotation
								End Site
								{
									OFFSET	1	0	0
								}
							}
						}
					}
					JOINT left_clavicle
					{
						OFFSET	-43.2	22.4	-70.8
						CHANNELS 3  Xrotation Yrotation Zrotation
						JOINT left_shoulder
						{
							OFFSET	-93.9	-5.79999	48.7
							CHANNELS 3  Xrotation Yrotation Zrotation
							JOINT left_elbow
							{
								OFFSET	-291.4	-30.8	15.2
								CHANNELS 3  Xrotation Yrotation Zrotation
								JOINT left_lowarm_twist
								{
									OFFSET	-110.7	-3.89999	13.6
									CHANNELS 3  Xrotation Yrotation Zrotation
									JOINT left_hand
									{
										OFFSET	-110.7	-3.89999	13.6
										CHANNELS 3  Xrotation Yrotation Zrotation
										JOINT left_ee
										{
											OFFSET	-80.8	-5.10001	12.1
											CHANNELS 3  Xrotation Yrotation Zrotation
											End Site
											{
												OFFSET	1	0	0
											}
										}
									}
								}
							}
						}
					}
					JOINT right_clavicle
					{
						OFFSET	43.2	22.4	-70.8
						CHANNELS 3  Xrotation Yrotation Zrotation
						JOINT right_shoulder
						{
							OFFSET	93.9	-5.79999	48.7
							CHANNELS 3  Xrotation Yrotation Zrotation
							JOINT right_elbow
							{
								OFFSET	291.4	-30.8	15.2
								CHANNELS 3  Xrotation Yrotation Zrotation
								JOINT right_lowarm_twist
								{
									OFFSET	110.7	-3.89999	13.6
									CHANNELS 3  Xrotation Yrotation Zrotation
									JOINT right_hand
									{
										OFFSET	110.7	-3.89999	13.6
										CHANNELS 3  Xrotation Yrotation Zrotation
										JOINT right_ee
										{
											OFFSET	80.8	-5.10001	12.1
											CHANNELS 3  Xrotation Yrotation Zrotation
											End Site
											{
												OFFSET	1	0	0
											}
										}
									}
								}
							}
						}
					}
				}
			}
		}
	}
	JOINT left_hip
	{
		OFFSET	-82.8	-127.5	0.300001
		CHANNELS 3  Xrotation Yrotation Zrotation
		JOINT left_knee
		{
			OFFSET	-28.2	-396.7	2.2
			CHANNELS 3  Xrotation Yrotation Zrotation
			JOINT left_ankle
			{
				OFFSET	-11.7	-411.3	35.4
				CHANNELS 3  Xrotation Yrotation Zrotation
				JOINT left_toes
				{
					OFFSET	0	-60	-88.6
					CHANNELS 3  Xrotation Yrotation Zrotation
					JOINT left_foot_ee
					{
						OFFSET	-22.5	-16.5	-42.2
						CHANNELS 3  Xrotation Yrotation Zrotation
						End Site
						{
							OFFSET	1	0	0
						}
					}
				}
			}
		}
	}
	JOINT right_hip
	{
		OFFSET	82.8	-127.5	0.300001
		CHANNELS 3  Xrotation Yrotation Zrotation
		JOINT right_knee
		{
			OFFSET	28.2	-396.7	2.2
			CHANNELS 3  Xrotation Yrotation Zrotation
			JOINT right_ankle
			{
				OFFSET	11.7	-411.3	35.4
				CHANNELS 3  Xrotation Yrotation Zrotation
				JOINT right_toes
				{
					OFFSET	0	-60	-88.6
					CHANNELS 3  Xrotation Yrotation Zrotation
					JOINT right_foot_ee
					{
						OFFSET	22.5	-16.5	-42.2
						CHANNELS 3  Xrotation Yrotation Zrotation
						End Site
						{
							OFFSET	1	0	0
						}
					}
				}
			}
		}
	}
}
MOTION
Frames: 6
Frame Time: 0.02
2510.97 769.344 -1524.64 6.65715 55.0514 -13.5482 -0.688075 0.808607 4.38843 -0.677519 0.528002 4.43087 -0.628773 -0.464174 4.438 -0.656167 0.241833 4.45561 2.23099 18.8768 -6.11692 4.20081 38.2515 -5.92772 -0.0 0.0 -0.0 -1.72578 11.9671 -1.48402 -24.0809 -5.71174 68.9436 1.04247 -27.3116 0.253282 -22.3027 -1.29427 2.523 -1.10398 10.3915 -2.75637 -0.0 0.0 -0.0 10.7627 15.831 -21.3609 -7.96429 37.8677 -66.2515 1.7021 40.1333 -0.621798 34.4945 0.0942913 4.33961 1.20265 -5.35107 -10.1798 0.0 0.0 0.0 -2.56692 28.9301 1.81804 -33.5473 -0.108068 5.07443 -1.498 6.10732 0.220164 25.0824 -0.0 -0.0 -0.0 0.0 -0.0 -5.92755 26.8437 1.53522 7.97421 0.409464 1.1536 -9.16946 1.03477 -1.38531 0.764555 -0.0 -0.0 0.0 0.0 0.0 
2504.53 770.124 -1527.53 7.68153 54.8581 -14.3416 -0.808967 0.891815 4.51052 -0.797855 0.603298 4.55799 -0.740979 -0.427648 4.57777 -0.770086 0.299908 4.58789 1.49064 19.162 -4.61225 3.1553 37.6752 -3.90265 -0.0 0.0 -0.0 -1.99584 12.6405 -1.82762 -25.3584 -5.22995 69.3894 1.04951 -27.4691 0.256521 -22.5502 -1.31398 2.54785 -1.07738 8.91511 -3.24344 -0.0 0.0 -0.0 10.5397 14.7228 -20.9074 -6.92067 37.7789 -66.8069 1.79598 41.6548 -0.683258 34.1144 0.079032 4.29347 1.1461 -7.02124 -10.4458 0.0 0.0 0.0 -2.81025 29.3431 1.08703 -23.198 0.243971 3.5273 -1.07854 5.11909 0.1585 19.1123 -0.0 -0.0 -0.0 0.0 -0.0 -6.34312 27.1098 1.57446 6.36288 0.313805 0.925171 -6.61771 -0.204609 -0.992256 0.785107 -0.0 -0.0 0.0 0.0 0.0 
2498.4 767.804 -1525.2 8.65622 54.8076 -15.2054 -0.906122 1.0354 4.6121 -0.894596 0.740155 4.66847 -0.82438 -0.325338 4.71547 -0.855147 0.422619 4.70776 1.10591 19.6297 -3.54965 2.64257 37.7273 -2.54011 -0.0 0.0 -0.0 -2.06576 13.1673 -1.85612 -25.8538 -4.90486 69.6983 1.06666 -27.8509 0.264481 -23.1648 -1.36337 2.60917 -1.04513 6.94576 -3.91062 -0.0 0.0 -0.0 10.3928 13.2604 -20.6302 -6.53675 37.6524 -67.9291 1.93865 43.8366 -0.780114 33.7435 0.0644424 4.24837 1.06998 -9.36276 -10.83 0.0 0.0 0.0 -4.36406 28.8043 2.79251 -9.90422 0.279377 1.49242 -2.48842 3.18984 0.367784 10.6866 -0.0 -0.0 -0.0 0.0 -0.0 -6.64452 27.416 1.19533 4.006 0.185574 0.586513 -3.26067 -1.509 -0.484252 0.82161 -0.0 -0.0 0.0 0.0 0.0 
2489.71 767.525 -1523.07 9.17134 54.7962 -15.8907 -1.00009 1.16697 4.76402 -0.987881 0.861826 4.82842 -0.904108 -0.249097 4.89824 -0.937187 0.526674 4.87626 0.422963 19.1956 -3.00291 1.72279 36.6525 -1.69992 -0.0 0.0 -0.0 -2.11476 13.4214 -1.89438 -26.0127 -4.86024 69.8287 1.05904 -27.6817 0.260934 -23.2283 -1.36851 2.61547 -1.0268 6.03434 -4.1958 -0.0 0.0 -0.0 10.1483 12.5008 -20.1098 -6.73741 37.4532 -68.8405 1.99166 44.6088 -0.817084 33.6193 0.0596205 4.23324 1.1043 -10.2957 -11.4024 0.0 0.0 0.0 -4.54803 28.5715 2.91596 -5.95607 0.199006 0.892009 -3.8281 1.26057 0.569503 9.95434 -0.0 -0.0 -0.0 0.0 -0.0 -6.16746 27.6247 1.35922 0.537065 0.0224873 0.079348 -1.16838 -1.86113 -0.17259 1.70354 -0.0 -0.0 0.0 0.0 0.0 
2481.0 766.235 -1520.38 8.75336 55.2333 -15.6365 -0.953806 1.17113 4.78153 -0.941506 0.864861 4.84616 -0.857298 -0.246109 4.9164 -0.890617 0.532482 4.89373 -0.418638 18.3403 -2.85499 0.634457 35.1615 -1.30448 -0.0 0.0 -0.0 -2.04913 13.4272 -1.78514 -25.979 -4.82079 69.8919 1.05503 -27.5923 0.259071 -23.3191 -1.37588 2.62448 -1.00909 4.98439 -4.54547 -0.0 0.0 -0.0 9.8196 11.5576 -19.4095 -7.16058 37.3602 -68.8954 2.04618 45.3822 -0.855639 33.4541 0.0532595 4.21311 1.18332 -11.1826 -12.2445 0.0 0.0 0.0 -5.11698 28.2725 3.25928 -4.70642 0.164964 0.703254 -5.23348 -1.32822 0.786108 9.32821 -0.0 -0.0 -0.0 0.0 -0.0 -5.40711 27.7439 1.56118 -3.10098 -0.115199 -0.4619 1.82542 -2.34693 0.267392 2.95914 -0.0 -0.0 0.0 0.0 0.0 
2469.82 770.623 -1518.45 10.5579 56.1143 -17.4207 -0.906139 1.13691 4.75056 -0.893974 0.832675 4.81307 -0.813348 -0.266392 4.87715 -0.846169 0.506276 4.85816 -1.60237 17.1135 -2.69802 -0.843004 33.0274 -0.864509 -0.0 0.0 -0.0 -2.047 13.4383 -1.77977 -26.1333 -4.76622 69.9764 1.04761 -27.4266 0.255643 -23.4565 -1.38705 2.63809 -0.982693 3.51288 -5.02315 -0.0 0.0 -0.0 9.35119 10.2556 -18.4154 -7.86332 37.2397 -68.6987 2.11093 46.2739 -0.902083 33.2283 0.0446573 4.18555 1.29219 -12.4588 -13.4137 0.0 0.0 0.0 -6.19677 27.8518 3.91306 -3.12111 0.115865 0.464919 -7.20807 -5.03464 1.10139 8.44236 -0.0 -0.0 -0.0 0.0 -0.0 -4.24014 27.9258 1.85204 -8.24419 -0.250628 -1.23932 6.09304 -3.00307 0.880621 4.7512 -0.0 -0.0 0.0 0.0 0.0 
